<svg width="35" height="35" viewBox="0 0 35 35" fill="none" xmlns="http://www.w3.org/2000/svg">
<rect width="35" height="35" rx="5" fill="url(#paint0_linear_1_650)"/>
<path opacity="0.15" d="M18 31.625C21.2792 31.625 23.9375 31.2053 23.9375 30.6875C23.9375 30.1697 21.2792 29.75 18 29.75C14.7208 29.75 12.0625 30.1697 12.0625 30.6875C12.0625 31.2053 14.7208 31.625 18 31.625Z" fill="#45413C"/>
<path d="M22.375 22.1875H13.625C13.375 22.1875 13.125 22 13.0625 21.75L12.5 19.5C12.4375 19.125 12.6875 18.8125 13.0625 18.8125H22.9375C23.3125 18.8125 23.5625 19.1875 23.5 19.5L22.9375 21.75C22.875 22 22.625 22.1875 22.375 22.1875Z" fill="#F0D5A8"/>
<path d="M12.6875 20.1875H23.3125L23.5 19.5C23.5625 19.125 23.3125 18.8125 22.9375 18.8125H13.0625C12.6875 18.8125 12.4375 19.1875 12.5 19.5L12.6875 20.1875Z" fill="#F7E5C6"/>
<path d="M22.375 22.1875H13.625C13.375 22.1875 13.125 22 13.0625 21.75L12.5 19.5C12.4375 19.125 12.6875 18.8125 13.0625 18.8125H22.9375C23.3125 18.8125 23.5625 19.1875 23.5 19.5L22.9375 21.75C22.875 22 22.625 22.1875 22.375 22.1875Z" stroke="#45413C" stroke-miterlimit="10" stroke-linecap="round" stroke-linejoin="round"/>
<path d="M19.375 30.6875H16.6875C15.8125 30.6875 15.125 30.0625 15 29.1875L14.0625 22.1875H22L21.0625 29.1875C20.9375 30.0625 20.1875 30.6875 19.375 30.6875Z" fill="#F0D5A8"/>
<path d="M21.75 23.625L22 22.1875H14L14.25 23.625H21.75Z" fill="#DEBB7E"/>
<path d="M19.375 30.6875H16.6875C15.8125 30.6875 15.125 30.0625 15 29.1875L14.0625 22.1875H22L21.0625 29.1875C20.9375 30.0625 20.1875 30.6875 19.375 30.6875Z" stroke="#45413C" stroke-miterlimit="10" stroke-linecap="round" stroke-linejoin="round"/>
<path d="M23.625 12.75C23.8125 12.4375 23.9375 12.0625 23.9375 11.6875C23.9375 10.5625 23.0625 9.6875 21.9375 9.6875H21.1875C21.4375 9.375 21.625 9 21.625 8.5625C21.625 7.625 20.875 6.875 19.9375 6.875H19.0625C17.8125 6.875 16.9375 5.5 17.5625 4.3125C15.6875 4.5 14.1875 6.0625 14.1875 8C14.1875 8.5 14.3125 9.3125 14.5 9.6875H13.9375C12.8125 9.6875 11.9375 10.5625 11.9375 11.6875C11.9375 12.0625 12.0625 12.4375 12.25 12.75C11.0625 13.1875 10.25 14.3125 10.25 15.6875C10.25 17.4375 11.625 18.8125 13.375 18.8125H22.4375C24.1875 18.8125 25.5625 17.4375 25.5625 15.6875C25.6875 14.3125 24.8125 13.1875 23.625 12.75Z" fill="#D955DF"/>
<path d="M12.0625 16.8125C12.0625 15.5 12.875 14.375 14.0625 13.875C13.875 13.5625 13.75 13.1875 13.75 12.8125C13.75 11.6875 14.625 10.8125 15.75 10.8125H16.3125C16.125 10.375 16 9.625 16 9.125C16 7.8125 16.6875 6.6875 17.6875 6.0625C17.375 5.5625 17.3125 4.9375 17.6875 4.3125C15.8125 4.5 14.3125 6.0625 14.3125 8C14.3125 8.5 14.4375 9.3125 14.625 9.6875H14.0625C12.9375 9.6875 12.0625 10.5625 12.0625 11.6875C12.0625 12.0625 12.1875 12.4375 12.375 12.75C11.1875 13.1875 10.375 14.3125 10.375 15.6875C10.375 17.125 11.375 18.375 12.6875 18.6875C12.3125 18.1875 12.0625 17.5 12.0625 16.8125Z" fill="#6C3E7E"/>
<path d="M23.625 12.75C23.8125 12.4375 23.9375 12.0625 23.9375 11.6875C23.9375 10.5625 23.0625 9.6875 21.9375 9.6875H21.1875C21.4375 9.375 21.625 9 21.625 8.5625C21.625 7.625 20.875 6.875 19.9375 6.875H19.0625C17.8125 6.875 16.9375 5.5 17.5625 4.3125C15.6875 4.5 14.1875 6.0625 14.1875 8C14.1875 8.5 14.3125 9.3125 14.5 9.6875H13.9375C12.8125 9.6875 11.9375 10.5625 11.9375 11.6875C11.9375 12.0625 12.0625 12.4375 12.25 12.75C11.0625 13.1875 10.25 14.3125 10.25 15.6875C10.25 17.4375 11.625 18.8125 13.375 18.8125H22.4375C24.1875 18.8125 25.5625 17.4375 25.5625 15.6875C25.6875 14.3125 24.8125 13.1875 23.625 12.75Z" stroke="#45413C" stroke-miterlimit="10" stroke-linecap="round" stroke-linejoin="round"/>
<path d="M22.8125 14.8125V15.6875C22.8125 16.1875 22.4375 16.5625 21.9375 16.5625C21.4375 16.5625 21.125 16.125 21.125 15.6875V13.6875" stroke="#45413C" stroke-miterlimit="10" stroke-linecap="round" stroke-linejoin="round"/>
<path d="M17.6875 11.4375V12.875C17.6875 13.375 17.3125 13.75 16.8125 13.75C16.3125 13.75 15.9375 13.375 15.9375 12.875V12.3125" stroke="#45413C" stroke-miterlimit="10" stroke-linecap="round" stroke-linejoin="round"/>
<path d="M15.4375 18.1875V19.625C15.4375 20.125 15.0625 20.5 14.5625 20.5C14.0625 20.5 13.6875 20.125 13.6875 19.625V18.1875H15.4375Z" fill="#FFFEF2"/>
<path d="M15.4375 18.8125V19.6875C15.4375 20.1875 15.0625 20.5625 14.5625 20.5625C14.0625 20.5625 13.6875 20.1875 13.6875 19.6875V18.25" stroke="#45413C" stroke-miterlimit="10" stroke-linecap="round" stroke-linejoin="round"/>
<defs>
<linearGradient id="paint0_linear_1_650" x1="-8.5" y1="41.5" x2="60.5" y2="-4" gradientUnits="userSpaceOnUse">
<stop stop-color="#16213D"/>
<stop offset="1" stop-color="#6C3E7E"/>
</linearGradient>
</defs>
</svg>
