<svg width="26" height="26" viewBox="0 0 26 26" fill="none" xmlns="http://www.w3.org/2000/svg">
<g clip-path="url(#clip0_1_774)">
<path d="M16.7917 16.6292H9.20833C8.99167 16.6292 8.775 16.4667 8.72083 16.2501L8.23333 14.3001C8.17917 13.9751 8.39583 13.7042 8.72083 13.7042H17.2792C17.6042 13.7042 17.8208 14.0292 17.7667 14.3001L17.2792 16.2501C17.225 16.4667 17.0083 16.6292 16.7917 16.6292Z" fill="white"/>
<path d="M8.39583 14.8959H17.6042L17.7667 14.3001C17.8208 13.9751 17.6042 13.7042 17.2792 13.7042H8.72083C8.39583 13.7042 8.17917 14.0292 8.23333 14.3001L8.39583 14.8959Z" fill="white"/>
<path d="M16.7917 16.6292H9.20833C8.99167 16.6292 8.775 16.4667 8.72083 16.2501L8.23333 14.3001C8.17917 13.9751 8.39583 13.7042 8.72083 13.7042H17.2792C17.6042 13.7042 17.8208 14.0292 17.7667 14.3001L17.2792 16.2501C17.225 16.4667 17.0083 16.6292 16.7917 16.6292Z" stroke="#121D39" stroke-width="1.5" stroke-miterlimit="10" stroke-linecap="round" stroke-linejoin="round"/>
<path d="M14.1916 23.9959H11.8625C11.1041 23.9959 10.5083 23.4542 10.4 22.6959L9.58746 16.6292H16.4666L15.6541 22.6959C15.5458 23.4542 14.8958 23.9959 14.1916 23.9959Z" fill="white"/>
<path d="M16.25 17.875L16.4667 16.6292H9.53333L9.74999 17.875H16.25Z" fill="white"/>
<path d="M14.1916 23.9959H11.8625C11.1041 23.9959 10.5083 23.4542 10.4 22.6959L9.58746 16.6292H16.4666L15.6541 22.6959C15.5458 23.4542 14.8958 23.9959 14.1916 23.9959Z" stroke="#121D39" stroke-width="1.5" stroke-miterlimit="10" stroke-linecap="round" stroke-linejoin="round"/>
<path d="M17.875 8.45004C18.0375 8.17921 18.1458 7.85421 18.1458 7.52921C18.1458 6.55421 17.3875 5.79588 16.4125 5.79588H15.7625C15.9792 5.52504 16.1417 5.20004 16.1417 4.82088C16.1417 4.00838 15.4917 3.35838 14.6792 3.35838H13.9208C12.8375 3.35838 12.0792 2.16671 12.6208 1.13754C10.9958 1.30004 9.69582 2.65421 9.69582 4.33338C9.69582 4.76671 9.80416 5.47088 9.96666 5.79588H9.47916C8.50416 5.79588 7.74583 6.55421 7.74583 7.52921C7.74583 7.85421 7.85416 8.17921 8.01666 8.45004C6.98749 8.82921 6.28333 9.80421 6.28333 10.9959C6.28333 12.5125 7.47499 13.7042 8.99166 13.7042H16.8458C18.3625 13.7042 19.5542 12.5125 19.5542 10.9959C19.6625 9.80421 18.9042 8.82921 17.875 8.45004Z" fill="white"/>
<path d="M7.85416 11.9709C7.85416 10.8334 8.55833 9.85838 9.5875 9.42504C9.425 9.15421 9.31666 8.82921 9.31666 8.50421C9.31666 7.52921 10.075 6.77088 11.05 6.77088H11.5375C11.375 6.39171 11.2667 5.74171 11.2667 5.30838C11.2667 4.17088 11.8625 3.19588 12.7292 2.65421C12.4583 2.22088 12.4042 1.67921 12.7292 1.13754C11.1042 1.30004 9.80416 2.65421 9.80416 4.33338C9.80416 4.76671 9.9125 5.47088 10.075 5.79588H9.5875C8.6125 5.79588 7.85416 6.55421 7.85416 7.52921C7.85416 7.85421 7.9625 8.17921 8.125 8.45004C7.09583 8.82921 6.39166 9.80421 6.39166 10.9959C6.39166 12.2417 7.25833 13.325 8.39583 13.5959C8.07083 13.1625 7.85416 12.5667 7.85416 11.9709Z" fill="white"/>
<path d="M17.875 8.45004C18.0375 8.17921 18.1458 7.85421 18.1458 7.52921C18.1458 6.55421 17.3875 5.79588 16.4125 5.79588H15.7625C15.9792 5.52504 16.1417 5.20004 16.1417 4.82088C16.1417 4.00838 15.4917 3.35838 14.6792 3.35838H13.9208C12.8375 3.35838 12.0792 2.16671 12.6208 1.13754C10.9958 1.30004 9.69582 2.65421 9.69582 4.33338C9.69582 4.76671 9.80416 5.47088 9.96666 5.79588H9.47916C8.50416 5.79588 7.74583 6.55421 7.74583 7.52921C7.74583 7.85421 7.85416 8.17921 8.01666 8.45004C6.98749 8.82921 6.28333 9.80421 6.28333 10.9959C6.28333 12.5125 7.50012 13.7042 8.99166 13.7042H16.8458C18.3625 13.7042 19.5542 12.5125 19.5542 10.9959C19.6625 9.80421 18.9042 8.82921 17.875 8.45004Z" stroke="#121D39" stroke-width="1.5" stroke-miterlimit="10" stroke-linecap="round" stroke-linejoin="round"/>
</g>
<defs>
<clipPath id="clip0_1_774">
<rect width="26" height="26" fill="white"/>
</clipPath>
</defs>
</svg>
