<svg width="25" height="23" viewBox="0 0 25 23" fill="none" xmlns="http://www.w3.org/2000/svg">
<path d="M8.00007 1.00003C8.00007 1.00003 3.00018 3.33724 2.00007 4.41863C0.99995 5.50003 1 21 2.00007 22C3.00013 23 5.5 19 8.00007 17.6047M8.00007 1.00003C9.5 1.00002 13.5 5.00003 14.5001 4.41863M8.00007 1.00003C8.00007 7.48455 8.00007 17.6047 8.00007 17.6047M14.5001 4.41863C15.5001 4.41863 22 1.00002 23.0001 1.00003C24.0001 1.00004 23.0001 10.0931 23.0001 10.0931M14.5001 4.41863C14.5001 5.52663 14.5001 7.25584 14.5001 7.25584M8.00007 17.6047C10.5 18.0698 14 22 14.5001 22M19.5001 17.0931L24.0001 22M21.0001 13.8954V13.8954C21.0001 11.5899 19.1311 9.72096 16.8257 9.72096H16.6745C14.369 9.72096 12.5001 11.5899 12.5001 13.8954V13.8954C12.5001 16.2008 14.369 18.0698 16.6745 18.0698H16.8257C19.1311 18.0698 21.0001 16.2008 21.0001 13.8954Z" stroke="#121D39" stroke-width="1.5" stroke-linecap="round"/>
</svg>
